<svg width="14" height="14" viewBox="0 0 14 14" fill="none" xmlns="http://www.w3.org/2000/svg">
  <path
    d="M7.00004 13.9998C3.31814 13.9998 0.333374 11.015 0.333374 7.33317C0.333374 3.65127 3.31814 0.666504 7.00004 0.666504C10.6819 0.666504 13.6667 3.65127 13.6667 7.33317C13.6667 11.015 10.6819 13.9998 7.00004 13.9998ZM7.00004 12.6665C9.94557 12.6665 12.3334 10.2787 12.3334 7.33317C12.3334 4.38765 9.94557 1.99984 7.00004 1.99984C4.05452 1.99984 1.66671 4.38765 1.66671 7.33317C1.66671 10.2787 4.05452 12.6665 7.00004 12.6665ZM7.66671 7.33317H10.3334V8.6665H6.33337V3.99984H7.66671V7.33317Z"
    fill="white" />
</svg>