<svg width="24" height="25" viewBox="0 0 24 25" fill="none" xmlns="http://www.w3.org/2000/svg"><path d="M19.5 7.833H3a.75.75 0 0 0-.75.75v4.5a9.028 9.028 0 0 0 3.05 6.75H3a.75.75 0 1 0 0 1.5h16.5a.75.75 0 1 0 0-1.5h-2.3a9.055 9.055 0 0 0 2.53-3.758 3.75 3.75 0 0 0 3.52-3.742v-.75a3.75 3.75 0 0 0-3.75-3.75Zm2.25 4.5a2.25 2.25 0 0 1-1.613 2.156c.075-.465.112-.935.113-1.406v-3.62a2.25 2.25 0 0 1 1.5 2.12v.75ZM10.5 5.583v-3a.75.75 0 1 1 1.5 0v3a.75.75 0 1 1-1.5 0Zm3 0v-3a.75.75 0 1 1 1.5 0v3a.75.75 0 1 1-1.5 0Zm-6 0v-3a.75.75 0 0 1 1.5 0v3a.75.75 0 0 1-1.5 0Z" fill="#fff"/></svg>