<svg width="17" height="16" fill="none" xmlns="http://www.w3.org/2000/svg"><path d="M10.5 2.661c1.01 0 1.828-.818 1.828-1.828h.844c0 1.01.818 1.828 1.828 1.828v.844c-1.01 0-1.828.818-1.828 1.828h-.844c0-1.01-.818-1.828-1.828-1.828V2.66ZM.75 7.583a4.5 4.5 0 0 0 4.5-4.5h1.5a4.5 4.5 0 0 0 4.5 4.5v1.5a4.5 4.5 0 0 0-4.5 4.5h-1.5a4.5 4.5 0 0 0-4.5-4.5v-1.5Zm12.188 2.25a2.437 2.437 0 0 1-2.438 2.438v1.124a2.437 2.437 0 0 1 2.438 2.438h1.124a2.437 2.437 0 0 1 2.438-2.438v-1.124a2.437 2.437 0 0 1-2.438-2.438h-1.124Z" fill="#F7DF1F"/></svg>