<svg width="30" height="31" viewBox="0 0 30 31" fill="none" xmlns="http://www.w3.org/2000/svg">
<path fill-rule="evenodd" clip-rule="evenodd" d="M30 0.829102H0V30.8291H30V0.829102ZM6.73363 10.146C8.17095 10.146 9.33612 8.98085 9.33612 7.54353C9.33612 6.10622 8.17095 4.94104 6.73363 4.94104C5.29631 4.94104 4.13114 6.10622 4.13114 7.54353C4.13114 8.98085 5.29631 10.146 6.73363 10.146ZM11.7196 12.0693H16.0327V14.0452C16.0327 14.0452 17.2032 11.7044 20.3878 11.7044C23.2286 11.7044 25.5819 13.1038 25.5819 17.3694V26.3644H21.1122V18.4594C21.1122 15.9431 19.7688 15.6663 18.7451 15.6663C16.6206 15.6663 16.2569 17.4988 16.2569 18.7876V26.3644H11.7196V12.0693ZM9.0023 12.0694H4.46497V26.3644H9.0023V12.0694Z" fill="currentColor"/>
</svg>
