<svg width="64" height="64" viewBox="0 0 64 64" fill="none" xmlns="http://www.w3.org/2000/svg"><g clip-path="url(#a)"><path d="M-6.4-6.4h76.8v76.8H-6.4V-6.4Z" fill="#fff"/><path d="M-6.4-6.4h76.8v76.8H-6.4V-6.4Z" fill="#fff"/><path d="M-6.4-6.4h76.8v76.8H-6.4V-6.4Z" fill="#F7DF1E"/><path d="M42.992 50c1.289 2.105 2.966 3.652 5.932 3.652 2.492 0 4.084-1.245 4.084-2.966 0-2.062-1.635-2.793-4.378-3.992l-1.504-.645c-4.34-1.85-7.223-4.166-7.223-9.062 0-4.51 3.437-7.944 8.808-7.944 3.824 0 6.573 1.33 8.554 4.815l-4.683 3.007c-1.032-1.849-2.144-2.577-3.871-2.577-1.761 0-2.878 1.117-2.878 2.577 0 1.804 1.118 2.535 3.698 3.652l1.503.644c5.11 2.191 7.995 4.425 7.995 9.448 0 5.414-4.253 8.38-9.965 8.38-5.586 0-9.194-2.661-10.96-6.15L42.992 50Zm-21.245.521c.945 1.677 1.804 3.094 3.87 3.094 1.976 0 3.223-.773 3.223-3.78V29.387h6.014v20.531c0 6.227-3.651 9.062-8.98 9.062-4.816 0-7.605-2.492-9.023-5.494l4.896-2.964Z" fill="#AB181F"/><mask id="b" style="mask-type:luminance" maskUnits="userSpaceOnUse" x="0" y="0" width="64" height="16"><path d="M0 0h64v15.565H0V0Z" fill="#fff"/></mask><g mask="url(#b)"><path d="M0-8.32h66.151v23.885H0V-8.32Z" fill="#AB181F"/></g></g><defs><clipPath id="a"><path fill="#fff" d="M0 0h64v64H0z"/></clipPath></defs></svg>