<svg xmlns="http://www.w3.org/2000/svg" viewBox="0 0 750 750"><defs><clipPath id="a"><path d="M0 0h750v182.406H0Zm0 0"/></clipPath></defs><path fill="#f7df1e" d="M-75-75h900v900H-75z"/><path fill="#ab181f" d="M503.809 585.941c15.109 24.664 34.761 42.797 69.523 42.797 29.203 0 47.86-14.593 47.86-34.761 0-24.168-19.169-32.727-51.31-46.786l-17.62-7.558c-50.856-21.668-84.645-48.813-84.645-106.192 0-52.859 40.278-93.097 103.215-93.097 44.813 0 77.023 15.597 100.238 56.43l-54.879 35.238c-12.086-21.668-25.12-30.203-45.359-30.203-20.64 0-33.727 13.097-33.727 30.203 0 21.144 13.098 29.703 43.336 42.797l17.618 7.546c59.882 25.68 93.691 51.86 93.691 110.715 0 63.453-49.844 98.215-116.785 98.215-65.453 0-107.738-31.191-128.43-72.07Zm-248.965 6.106c11.074 19.644 21.144 36.25 45.36 36.25 23.151 0 37.76-9.059 37.76-44.285V344.367h70.477v240.598c0 72.976-42.785 106.191-105.238 106.191-56.43 0-89.11-29.203-105.726-64.375Zm0 0"/><g clip-path="url(#a)"><path fill="#ab181f" d="M0-97.5h775.207v279.906H0Zm0 0"/></g><path fill="#ab181f" d="M414.743 266.631q-18.3.001-40.22 11.563-21.923 11.564-40.562 30.203v-52.11q34.53-37.623 84.235-37.624 23.467 0 42.968 4.828 19.5 4.828 50.22 17.953c15.187 6.437 28.413 11.215 39.687 14.328q16.921 4.658 33.14 4.656 18.639.002 40.735-11.047 22.089-11.044 40.734-30.718v51.765q-35.221 37.97-84.219 37.97-24.86 0-46.61-5.688-21.737-5.7-46.593-16.75-25.894-11.045-41.422-15.188-15.534-4.138-32.093-4.14Zm0 0"/></svg>