<svg xmlns="http://www.w3.org/2000/svg" width="1000" height="1000" version="1.0" viewBox="0 0 750 750"><defs><clipPath id="a"><path d="M0 0h750v182.406H0Zm0 0"/></clipPath></defs><path fill="#fff" d="M-75-75h900v900H-75z"/><path fill="#fff" d="M-75-75h900v900H-75z"/><path fill="#f7df1e" d="M-75-75h900v900H-75z"/><path fill="#ab181f" d="M503.809 585.941c15.109 24.664 34.761 42.797 69.523 42.797 29.203 0 47.86-14.593 47.86-34.761 0-24.168-19.169-32.727-51.31-46.786l-17.62-7.558c-50.856-21.668-84.645-48.813-84.645-106.192 0-52.859 40.278-93.097 103.215-93.097 44.813 0 77.023 15.597 100.238 56.43l-54.879 35.238c-12.086-21.668-25.12-30.203-45.359-30.203-20.64 0-33.727 13.097-33.727 30.203 0 21.144 13.098 29.703 43.336 42.797l17.618 7.546c59.882 25.68 93.691 51.86 93.691 110.715 0 63.453-49.844 98.215-116.785 98.215-65.453 0-107.738-31.191-128.43-72.07Zm-248.965 6.106c11.074 19.644 21.144 36.25 45.36 36.25 23.151 0 37.76-9.059 37.76-44.285V344.367h70.477v240.598c0 72.976-42.785 106.191-105.238 106.191-56.43 0-89.11-29.203-105.726-64.375Zm0 0"/><g clip-path="url(#a)"><path fill="#ab181f" d="M0-97.5h775.207v279.906H0Zm0 0"/></g><path fill="#ab181f" d="M414.743 266.631c-12.2 0-25.606 3.856-40.22 11.563-14.616 7.71-28.136 17.777-40.562 30.203v-52.11c23.02-25.081 51.098-37.624 84.235-37.624 15.644 0 29.968 1.61 42.968 4.828 13 3.219 29.739 9.203 50.22 17.953 15.187 6.437 28.413 11.215 39.687 14.328 11.28 3.106 22.328 4.656 33.14 4.656 12.426 0 26.004-3.68 40.735-11.047 14.726-7.363 28.304-17.601 40.734-30.718v51.765c-23.48 25.313-51.555 37.97-84.219 37.97-16.574 0-32.11-1.895-46.61-5.688-14.491-3.801-30.023-9.383-46.593-16.75-17.262-7.364-31.07-12.426-41.422-15.188-10.355-2.758-21.054-4.14-32.093-4.14Zm0 0"/></svg>