<svg width="48" height="42" viewBox="0 0 48 42" fill="none" xmlns="http://www.w3.org/2000/svg">
<path d="M15.4105 26.7968C12.2526 29.9704 12.2526 35.1115 15.4105 38.2851L4.00001 26.7968C0.842118 23.6444 0.842118 18.5032 4.00001 15.3297L15.4105 3.86259C18.5684 0.689033 23.6632 0.689033 26.8211 3.86259C29.979 7.03614 29.979 12.1561 26.8211 15.3297L15.4105 26.7968Z" fill="#199AFC"/>
<path d="M15.4106 26.797L21.1158 21.0635L26.8211 26.797C29.979 29.9706 29.979 35.1117 26.8211 38.2853C23.6632 41.4377 18.5685 41.4377 15.4106 38.2853C12.2527 35.1117 12.2527 29.9706 15.4106 26.797Z" fill="#1D5682"/>
<path d="M39.0526 17.8904C40.8 16.1555 40.8 13.2993 39.0526 11.5645L45.3684 17.8904C47.0947 19.6464 47.0947 22.4815 45.3684 24.2375L39.0526 30.5846C37.3052 32.3407 34.4842 32.3407 32.7368 30.5846C30.9895 28.8286 30.9895 25.9935 32.7368 24.2375L39.0526 17.8904Z" fill="#199AFC"/>
<path d="M39.0526 17.89L35.8947 21.0636L32.7368 17.89C30.9894 16.1552 30.9894 13.299 32.7368 11.5641C34.4842 9.80806 37.3052 9.80806 39.0526 11.5641C40.8 13.299 40.8 16.1552 39.0526 17.89Z" fill="#1D5682"/>
</svg>
