<svg width="48" height="42" fill="none" xmlns="http://www.w3.org/2000/svg"><path d="M15.41 26.797c-3.157 3.173-3.157 8.314 0 11.488L4 26.797C.842 23.644.842 18.503 4 15.33L15.41 3.863a8.028 8.028 0 0 1 11.411 0 8.124 8.124 0 0 1 0 11.467l-11.41 11.467Z" fill="#199AFC"/><path d="m15.41 26.797 5.706-5.733 5.705 5.733c3.158 3.174 3.158 8.315 0 11.488a8.066 8.066 0 0 1-11.41 0c-3.158-3.173-3.158-8.314 0-11.488Z" fill="#1D5682"/><path d="M39.053 17.89a4.472 4.472 0 0 0 0-6.325l6.315 6.325a4.537 4.537 0 0 1 0 6.348l-6.315 6.347a4.444 4.444 0 0 1-6.316 0 4.498 4.498 0 0 1 0-6.348l6.316-6.347Z" fill="#199AFC"/><path d="m39.053 17.89-3.158 3.174-3.158-3.174a4.472 4.472 0 0 1 0-6.326 4.444 4.444 0 0 1 6.316 0 4.472 4.472 0 0 1 0 6.326Z" fill="#1D5682"/></svg>