<svg width="34" height="34" viewBox="0 0 34 34" fill="none" xmlns="http://www.w3.org/2000/svg">
<path d="M17 31.1667C22.8508 31.1667 27.625 26.3925 27.625 20.5417V13.4584C27.625 7.60754 22.8508 2.83337 17 2.83337C11.1492 2.83337 6.375 7.60754 6.375 13.4584V20.5417C6.375 26.3925 11.1492 31.1667 17 31.1667Z" stroke="currentColor" stroke-width="2.125" stroke-linecap="round" stroke-linejoin="round"/>
<path d="M17 15.5833C15.8242 15.5833 14.875 14.6342 14.875 13.4583V10.625C14.875 9.44917 15.8242 8.5 17 8.5C18.1617 8.5 19.125 9.44917 19.125 10.625V13.4583C19.125 14.6342 18.1617 15.5833 17 15.5833Z" stroke="currentColor" stroke-width="2.125" stroke-linecap="round" stroke-linejoin="round"/>
<path d="M17 8.50004V2.83337" stroke="currentColor" stroke-width="2.125" stroke-linecap="round" stroke-linejoin="round"/>
</svg>
