<svg width="14" height="14" viewBox="0 0 14 14" fill="none" xmlns="http://www.w3.org/2000/svg">
<path d="M1.99707 0.786448C2.92189 0.457663 3.99423 0.66338 4.73445 1.40361C5.47489 2.14405 5.68053 3.21678 5.35134 4.14178L13.4849 12.2754L11.8939 13.8664L3.75952 5.73308C2.8347 6.06189 1.76237 5.85616 1.02214 5.11592C0.281703 4.37548 0.0760755 3.30275 0.405258 2.37775L2.0828 4.05526C2.52214 4.4946 3.23445 4.4946 3.67379 4.05526C4.11313 3.61592 4.11313 2.90361 3.67379 2.46427L1.99707 0.786448ZM9.7726 2.1991L12.1591 0.873283L13.2197 1.93394L11.8939 4.32043L10.5681 4.58559L8.97708 6.17656L7.91643 5.11592L9.5074 3.52493L9.7726 2.1991ZM4.46929 8.03274L6.06025 9.62371L2.34797 13.3361C1.90863 13.7754 1.19631 13.7754 0.756978 13.3361C0.343481 12.9225 0.319158 12.2672 0.684003 11.8253L0.756978 11.745L4.46929 8.03274Z" fill="#F7DF1F"/>
</svg>
