<svg
  width="18"
  height="23"
  viewBox="0 0 18 23"
  fill="none"
  xmlns="http://www.w3.org/2000/svg"
>
  <path
    d="M9 22.2279L2.63604 15.864C-0.87868 12.3492 -0.87868 6.65076 2.63604 3.13604C6.15076 -0.37868 11.8492 -0.37868 15.364 3.13604C18.8787 6.65076 18.8787 12.3492 15.364 15.864L9 22.2279ZM13.9497 14.4497C16.6834 11.7161 16.6834 7.28392 13.9497 4.55025C11.2161 1.81658 6.78392 1.81658 4.05025 4.55025C1.31658 7.28392 1.31658 11.7161 4.05025 14.4497L9 19.3995L13.9497 14.4497ZM9 11.5C7.8954 11.5 7 10.6046 7 9.5C7 8.39543 7.8954 7.5 9 7.5C10.1046 7.5 11 8.39543 11 9.5C11 10.6046 10.1046 11.5 9 11.5Z"
    fill="currentColor"
  >
  </path>
</svg>