<svg xmlns="http://www.w3.org/2000/svg" width="447" height="126" viewBox="0 0 447 126"><g fill="none" fill-rule="evenodd"><path fill="#FC3" d="m82.979 87.1 15.738-15.738a7.418 7.418 0 0 0 0-10.492L82.979 45.13c5.794-5.794 5.794-15.19 0-20.983-5.795-5.795-15.19-5.795-20.985 0L46.256 8.407a7.419 7.419 0 0 0-10.493 0L9.533 34.64v62.953l26.23 26.232a7.422 7.422 0 0 0 10.493 0l15.738-15.74c-5.794-5.794-5.794-15.19 0-20.984 5.795-5.795 15.19-5.795 20.985 0"/><path fill="#F90" d="m9.533 97.592 26.23-26.23a7.419 7.419 0 0 0 0-10.493l-26.23-26.23v62.953Z"/><path fill="#000" d="M93.414 55.36a9.829 9.829 0 0 1 2.898 6.998 9.833 9.833 0 0 1-2.898 6.998l-17.49 17.49-1.751-1.752c-4.821-4.82-12.662-4.82-17.483 0-4.818 4.82-4.818 12.662 0 17.482l1.752 1.752-17.49 17.49a9.869 9.869 0 0 1-6.998 2.893 9.864 9.864 0 0 1-6.997-2.893L0 94.86V29.855L26.958 2.899a9.833 9.833 0 0 1 6.998-2.9 9.836 9.836 0 0 1 6.998 2.9l14.11 14.11c6.778-5.071 16.455-4.53 22.613 1.628a17.205 17.205 0 0 1 5.07 12.244 17.18 17.18 0 0 1-3.442 10.368l14.11 14.112Zm-66.457 3.504L4.955 36.862v50.993l22.002-22.002a4.914 4.914 0 0 0 1.448-3.495 4.912 4.912 0 0 0-1.448-3.494Zm62.954 6.989a4.913 4.913 0 0 0 1.447-3.495 4.91 4.91 0 0 0-1.447-3.494l-17.49-17.49 1.752-1.752a12.284 12.284 0 0 0 3.62-8.741c0-3.301-1.286-6.406-3.62-8.74-4.821-4.82-12.662-4.82-17.482-.001l-1.752 1.752-17.49-17.49a4.91 4.91 0 0 0-3.494-1.447 4.91 4.91 0 0 0-3.494 1.447L5.98 30.88 30.46 55.36c3.859 3.859 3.859 10.138 0 13.996L5.98 93.834l24.48 24.48a4.907 4.907 0 0 0 3.495 1.447c1.32 0 2.56-.513 3.494-1.447l14.11-14.111c-5.07-6.778-4.528-16.455 1.628-22.612 6.158-6.156 15.834-6.7 22.612-1.627L89.91 65.853Zm39.662.886c-.552 0-.92.37-.92.92 0 8.374 4.325 12.056 10.674 12.056 4.785 0 8.374-2.393 9.478-5.798.368-1.196 1.29-1.564 2.116-1.564h4.693c.921 0 1.748.552 1.565 1.84-1.105 8.006-8.28 13.803-17.852 13.803-11.043 0-18.128-7.82-18.864-17.483-.276-3.68-.276-9.202 0-12.883.736-9.662 7.821-17.484 18.864-17.484 11.134 0 18.405 6.902 18.405 18.404v6.35c0 1.012-.83 1.84-1.84 1.84h-26.319Zm-.736-8.28c0 .552.367.92.92.92h19.141c.551 0 .92-.368.92-.92 0-6.352-4.694-10.03-10.399-10.03-6.35 0-10.582 4.416-10.582 10.03Zm36.9 12.054c-.278-3.681-.278-9.202 0-12.883.735-9.662 7.82-17.483 17.482-17.483 4.234 0 6.718 2.3 8.56 2.3 1.38 0 2.022-.553 2.022-2.3v-16.29c0-1.011.83-1.84 1.841-1.84h4.601c1.012 0 1.84.829 1.84 1.84v61.379c0 1.01-.828 1.84-1.84 1.84h-3.128c-.552 0-.92-.276-1.288-.644-.553-.644-1.38-1.472-2.3-1.472-2.67 0-3.498 3.036-10.308 3.036-9.662 0-16.747-7.821-17.483-17.483Zm7.82 0c.368 4.877 4.232 9.202 10.583 9.202 6.35 0 10.214-4.325 10.582-9.202.275-3.773.275-9.11 0-12.883-.368-4.877-4.233-9.202-10.582-9.202-6.35 0-10.215 4.325-10.583 9.202-.276 3.774-.276 9.11 0 12.883Zm76.56-12.883c.275 3.681.275 9.202 0 12.883-.737 9.662-7.823 17.483-17.485 17.483-4.234 0-6.718-2.3-8.558-2.3-1.38 0-2.025.551-2.025 2.3v15.645c0 1.011-.827 1.84-1.84 1.84h-4.602a1.846 1.846 0 0 1-1.839-1.84V42.906c0-1.012.828-1.839 1.84-1.839h3.128c.553 0 .92.276 1.29.643.551.645 1.38 1.473 2.3 1.473 2.668 0 3.496-3.036 10.306-3.036 9.662 0 16.748 7.821 17.484 17.483Zm-7.823 0c-.368-4.877-4.233-9.202-10.582-9.202-6.35 0-10.215 4.325-10.583 9.202-.276 3.773-.276 9.109 0 12.883.368 4.877 4.233 9.202 10.583 9.202 6.35 0 10.214-4.325 10.582-9.202.275-3.774.275-9.11 0-12.883Zm17.023-14.724c0-1.013.828-1.84 1.84-1.84h4.6c1.014 0 1.84.827 1.84 1.84v27.606c0 5.337 3.775 9.203 10.124 9.203 5.705 0 10.122-3.406 10.122-8.744V42.906c0-1.013.828-1.84 1.84-1.84h4.602c1.01 0 1.84.827 1.84 1.84v42.33c0 1.011-.83 1.84-1.84 1.84h-4.05c-.551 0-.92-.276-1.287-.645-.553-.643-1.381-1.47-2.301-1.47-2.67 0-3.037 3.035-9.846 3.035-10.4 0-17.484-7.36-17.484-17.484V42.906Zm70.486 6.994c.37-.46.093-.92-.46-.92h-22.177a1.845 1.845 0 0 1-1.84-1.84v-4.233c0-1.013.828-1.84 1.84-1.84h31.287c1.013 0 1.84.827 1.84 1.84v5.245c0 1.655-1.01 2.76-1.84 3.773l-23.189 26.318c-.367.46-.092.92.46.92h23.65c1.012 0 1.84.829 1.84 1.84v4.233a1.846 1.846 0 0 1-1.84 1.84h-33.128a1.846 1.846 0 0 1-1.84-1.84v-5.43c0-1.195.091-1.563 1.196-2.852L329.803 49.9Zm42.328 0c.368-.46.092-.92-.46-.92h-22.177a1.846 1.846 0 0 1-1.84-1.84v-4.233c0-1.013.828-1.84 1.84-1.84h31.286c1.013 0 1.841.827 1.841 1.84v5.245c0 1.655-1.01 2.76-1.84 3.773l-23.189 26.318c-.368.46-.092.92.46.92h23.65c1.011 0 1.84.829 1.84 1.84v4.233a1.847 1.847 0 0 1-1.84 1.84h-33.129a1.846 1.846 0 0 1-1.839-1.84v-5.43c0-1.195.091-1.563 1.196-2.852L372.131 49.9Zm26.594 35.336a1.847 1.847 0 0 1-1.841 1.84h-4.6a1.846 1.846 0 0 1-1.841-1.84V23.857c0-1.011.828-1.84 1.841-1.84h4.6c1.012 0 1.841.829 1.841 1.84v61.379Zm19.23-18.497c-.552 0-.92.37-.92.92 0 8.374 4.325 12.056 10.674 12.056 4.785 0 8.374-2.393 9.48-5.798.367-1.196 1.287-1.564 2.115-1.564h4.693c.92 0 1.748.552 1.565 1.84-1.105 8.006-8.282 13.803-17.853 13.803-11.042 0-18.128-7.82-18.864-17.483-.276-3.68-.276-9.202 0-12.883.736-9.662 7.822-17.484 18.864-17.484 11.135 0 18.405 6.902 18.405 18.404v6.35c0 1.012-.829 1.84-1.84 1.84h-26.319Zm-.736-8.28c0 .552.368.92.92.92h19.141c.551 0 .92-.368.92-.92 0-6.352-4.693-10.03-10.399-10.03-6.349 0-10.582 4.416-10.582 10.03Z"/></g></svg>