<svg xmlns="http://www.w3.org/2000/svg" width="160" height="44" fill="#1273EB" class="h-auto w-[108px] text-piki-blue-500 lg:w-auto dark:text-white" viewBox="0 0 109 16"><path d="M28.628 10.093c-.046-.045-.015-.137.061-.137h.321c2.613-.259 4.8-1.948 4.8-4.932C33.81 1.584 31.026 0 27.832 0H12.901a.371.371 0 0 0-.367.365V15.62c0 .198.168.366.367.366h4.768a.371.371 0 0 0 .367-.366v-4.871c0-.198.168-.365.367-.365h3.103c.428 0 .84.182 1.13.502l4.418 4.963c.091.045.183.076.275.121h6.297c.32 0 .489-.38.26-.608l-5.258-5.268ZM26.64 6.82h-8.253a.371.371 0 0 1-.367-.365V4.14c0-.198.168-.366.367-.366h8.13c1.162 0 1.927.564 1.927 1.477 0 1.035-.704 1.568-1.804 1.568ZM88.906.016h-4.769a.371.371 0 0 0-.367.365v10.124c0 .198.169.365.367.365h4.769a.371.371 0 0 0 .367-.365V.38c-.016-.198-.168-.365-.367-.365ZM88.906 13.016h-4.769a.371.371 0 0 0-.367.365v2.253c0 .198.169.365.367.365h4.769a.371.371 0 0 0 .367-.365v-2.253c-.016-.198-.168-.365-.367-.365ZM108.53 15.513l-6.129-8.084a.46.46 0 0 1 .031-.593l5.793-6.333c.168-.183.03-.472-.214-.472h-5.014a.499.499 0 0 0-.351.152l-5.594 6.12a.117.117 0 0 1-.076.03h-.199c-.046 0-.092-.045-.092-.09V.35a.339.339 0 0 0-.336-.335h-4.585a.339.339 0 0 0-.336.335v15.284c0 .168.137.305.305.305h4.631a.306.306 0 0 0 .306-.305v-2.847a.49.49 0 0 1 .122-.32l2.033-2.161s.015-.03.061-.03h.275c.03 0 .061.03.061.03l4.096 5.45c.092.122.23.183.383.183h4.6c.244 0 .367-.26.229-.427ZM41.221 3.67h4.662a.371.371 0 0 0 .367-.366V.38a.371.371 0 0 0-.367-.365h-9.644a.371.371 0 0 0-.367.365v15.254c0 .198.168.365.367.365h9.644a.371.371 0 0 0 .367-.365v-2.923a.371.371 0 0 0-.367-.365H41.19a.371.371 0 0 1-.367-.366v-1.903c0-.213.183-.395.397-.395h4.662a.371.371 0 0 0 .367-.366V6.455a.371.371 0 0 0-.367-.365H41.22a.404.404 0 0 1-.397-.396V4.05a.39.39 0 0 1 .397-.38ZM53.755 3.67h4.661a.371.371 0 0 0 .367-.366V.38a.371.371 0 0 0-.367-.365h-9.644a.371.371 0 0 0-.367.365v15.254c0 .198.168.365.367.365h9.644a.371.371 0 0 0 .367-.365v-2.923a.371.371 0 0 0-.367-.365h-4.692a.371.371 0 0 1-.367-.366v-1.903c0-.213.184-.395.398-.395h4.661a.371.371 0 0 0 .367-.366V6.455a.371.371 0 0 0-.367-.365h-4.661a.404.404 0 0 1-.398-.396V4.05a.39.39 0 0 1 .398-.38ZM5.351 3.67h4.662a.371.371 0 0 0 .367-.366V.38a.371.371 0 0 0-.367-.365H.369A.371.371 0 0 0 .002.38v15.254c0 .198.168.365.367.365h4.218a.371.371 0 0 0 .367-.365v-5.541c0-.214.183-.396.397-.396h4.662a.371.371 0 0 0 .367-.366V6.47a.371.371 0 0 0-.367-.365H5.35a.404.404 0 0 1-.397-.396V4.065c0-.228.168-.396.397-.396ZM75.747.016H61.304a.371.371 0 0 0-.367.365v15.254c0 .198.169.365.367.365h4.769a.371.371 0 0 0 .367-.365v-5.039c0-.107.076-.183.183-.183h9.14c3.668 0 6.45-1.903 6.45-5.267 0-3.486-2.782-5.13-6.466-5.13ZM75.06 6.82h-8.254a.371.371 0 0 1-.366-.366V4.141c0-.198.168-.365.366-.365h8.131c1.162 0 1.926.563 1.926 1.477 0 1.035-.718 1.568-1.803 1.568Z"/></svg>
