<svg xmlns="http://www.w3.org/2000/svg" width="238" height="50" fill="none"><path fill="#FF743B" d="M97.593 0H0v50h97.593V0Z"/><path fill="#9FA0B0" d="M237.161 0H97.594v50H237.16V0Z"/><path fill="#1D1D30" d="M12.879 7.647V26.53l7.164-9.42h5.394l-6.574 8.913 7.67 12.463h-5.1l-5.73-8.998-2.824 3.506v5.492H8.412V7.647h4.467ZM46.677 27.63v1.733h-15.55c.211 3.422 2.571 5.619 5.9 5.619 2.613 0 4.298-1.014 5.1-3.042h4.382c-1.349 4.436-4.678 7.013-9.608 7.013-3.077 0-5.605-1.014-7.543-3.042-1.897-2.028-2.866-4.732-2.866-8.07 0-3.337.97-5.956 2.866-8.026 1.896-2.113 4.424-3.169 7.543-3.169 5.857 0 9.776 3.887 9.776 10.985ZM31.17 25.857h10.998c-.042-3.21-2.149-5.28-5.31-5.28-3.16 0-5.393 2.196-5.688 5.28ZM69.138 27.63v1.733h-15.55c.211 3.422 2.571 5.619 5.9 5.619 2.613 0 4.298-1.014 5.1-3.042h4.382c-1.349 4.436-4.678 7.013-9.608 7.013-3.077 0-5.605-1.014-7.543-3.042-1.897-2.028-2.866-4.732-2.866-8.07 0-3.337.97-5.956 2.866-8.026 1.896-2.113 4.424-3.169 7.543-3.169 5.857 0 9.776 3.887 9.776 10.985Zm-15.507-1.774h10.998c-.042-3.21-2.149-5.28-5.31-5.28-3.16 0-5.393 2.196-5.688 5.28ZM91.386 19.857c1.854 2.112 2.781 4.774 2.781 7.942 0 3.17-.927 5.83-2.823 7.985-1.854 2.113-4.214 3.169-7.122 3.169-3.16 0-5.562-1.31-6.742-3.127v11.745h-4.51v-30.46h3.92l.295 3.042c1.559-2.324 3.919-3.507 7.037-3.507 2.908 0 5.31 1.056 7.164 3.211Zm-12.22 2.873c-1.223 1.225-1.813 2.873-1.813 4.9v.254c.042 2.07.632 3.718 1.812 4.985 1.222 1.225 2.613 1.86 4.214 1.86 1.77 0 3.245-.635 4.383-1.944 1.18-1.31 1.77-2.958 1.77-4.985 0-4.099-2.529-6.93-6.11-6.93-1.644 0-3.035.635-4.257 1.86ZM123.161 24.209h-4.383c-.716-2.197-2.655-3.423-5.183-3.423-1.728 0-3.119.676-4.256 1.986-1.138 1.31-1.686 3-1.686 5.07 0 2.07.548 3.675 1.686 4.985 1.137 1.31 2.612 1.986 4.34 1.986 2.486 0 4.467-1.352 5.099-3.38h4.425c-1.054 4.858-4.804 7.52-9.693 7.52-3.034 0-5.562-1.014-7.543-3.084-1.98-2.07-2.949-4.774-2.949-8.027 0-3.253.969-5.915 2.949-8.027 1.981-2.113 4.467-3.169 7.543-3.169 5.015 0 8.766 2.704 9.651 7.563ZM135.88 16.646c3.203 0 5.816 1.056 7.88 3.127 2.065 2.07 3.119 4.774 3.119 8.026 0 3.254-1.054 5.957-3.119 8.028-2.064 2.07-4.677 3.126-7.88 3.126-3.202 0-5.815-1.056-7.88-3.127-2.065-2.07-3.076-4.773-3.076-8.027 0-3.252 1.011-5.956 3.076-8.026 2.065-2.07 4.678-3.127 7.88-3.127Zm.042 4.14c-1.896 0-3.413.676-4.593 1.986-1.18 1.31-1.77 3-1.77 5.027 0 2.028.59 3.718 1.77 5.028 1.18 1.31 2.697 1.986 4.593 1.986 1.897 0 3.414-.676 4.551-1.986 1.18-1.31 1.77-3 1.77-5.027 0-2.028-.59-3.718-1.77-5.028-1.137-1.31-2.654-1.986-4.551-1.986ZM170.146 7.647v30.84h-3.919l-.295-3c-1.602 2.325-3.962 3.465-7.08 3.465-2.908 0-5.267-1.056-7.122-3.168-1.854-2.155-2.781-4.817-2.781-7.985 0-3.169.927-5.83 2.781-7.943 1.897-2.154 4.257-3.21 7.164-3.21 3.076 0 5.31 1.056 6.785 3.126V7.647h4.467Zm-16.561 20.152c0 4.098 2.486 6.928 6.068 6.928 1.643 0 3.076-.591 4.256-1.816 1.222-1.225 1.812-2.873 1.812-4.943v-.211c0-2.07-.59-3.718-1.812-4.943-1.222-1.268-2.613-1.901-4.214-1.901-3.54 0-6.11 2.83-6.11 6.886ZM179.373 12.716c-1.685 1.732-5.141.464-4.93-1.986a2.845 2.845 0 0 1 2.865-2.873c2.529-.169 3.919 3.295 2.065 4.859Zm.169 4.393v21.378h-4.467V17.109h4.467ZM201.496 24.631v13.857h-4.509v-12.97c0-2.915-1.306-4.478-3.624-4.478-2.57 0-4.383 2.197-4.383 6.084v11.364h-4.466V17.111h3.877l.337 2.873c1.053-1.986 3.118-3.338 5.857-3.338 4.425 0 6.911 3.127 6.911 7.985ZM224.589 17.11v3.888h-3.413c.463 1.056.716 2.154.716 3.295 0 2.155-.758 3.971-2.275 5.408-1.517 1.394-3.498 2.112-5.942 2.112-1.559 0-2.908-.296-4.13-.845-.463.465-.674 1.056-.674 1.817 0 1.225.927 1.985 2.444 1.985h5.352c4.424 0 6.826 2.197 6.826 5.957 0 4.605-3.497 7.31-9.102 7.31-6.11 0-9.481-2.367-9.481-6.591 0-1.69.758-2.958 2.275-3.845-1.812-1.056-2.697-2.535-2.697-4.478 0-1.817.717-3.296 2.192-4.436-.928-1.31-1.391-2.746-1.391-4.394 0-2.24.758-4.056 2.318-5.492 1.559-1.437 3.582-2.155 6.068-2.155 1.053 0 2.065.17 3.034.465h7.88Zm-12.6 21.294c-1.559.126-2.655 1.056-2.655 2.746 0 2.154 1.855 3.253 5.057 3.253 3.203 0 4.72-1.14 4.72-3.422 0-1.732-1.138-2.577-3.456-2.577h-3.666Zm-2.317-14.111c0 2.24 1.601 3.929 3.961 3.929 2.359 0 3.919-1.69 3.919-3.929 0-2.366-1.56-3.971-3.919-3.971-2.36 0-3.961 1.605-3.961 3.971Z"/></svg>