<svg xmlns="http://www.w3.org/2000/svg" width="231" height="39" fill="none"><path fill="#5ac878" fill-rule="evenodd" d="m26.644 5.872-6.01-3.47h-.002a3.86 3.86 0 0 0-1.934-.532c-.66 0-1.32.178-1.934.533L10.75 5.872l.001.001-6.008 3.468a3.86 3.86 0 0 0-1.429 1.413 3.85 3.85 0 0 0-.51 1.94v13.878c0 .704.178 1.363.51 1.94a3.86 3.86 0 0 0 1.43 1.412l6.007 3.468v.002l6.012 3.469a3.86 3.86 0 0 0 1.934.533c.66 0 1.319-.178 1.934-.533l6.012-3.47 6.007-3.469a3.86 3.86 0 0 0 1.43-1.412 3.86 3.86 0 0 0 .51-1.94V12.694c0-.704-.178-1.364-.51-1.94a3.86 3.86 0 0 0-1.43-1.413l-6.008-3.468zm-6.686-2.301 6.01 3.47 6.012 3.468q.35.204.607.479l-7.144 4.09a8 8 0 0 0-1.001-1.223 8.07 8.07 0 0 0-5.744-2.393 8.07 8.07 0 0 0-5.744 2.393 8 8 0 0 0-.983 1.196l-7.114-4.114q.241-.244.559-.428l12.022-6.938-.001-.002q.27-.155.554-.24v6.019a.7.7 0 0 0 .207.486.71.71 0 0 0 1 0 .7.7 0 0 0 .206-.486v-6.02q.285.086.555.241zm-15.74 8.552q-.06.274-.06.57v13.879q0 .336.075.64l5.25-3.048.008-.005a.7.7 0 0 1 .522-.063.72.72 0 0 1 .5.87.7.7 0 0 1-.316.424l-.007.004-5.227 3.035a2.7 2.7 0 0 0 .453.327l12.022 6.939-.001.001q.276.16.567.245l.006-8.166a8.08 8.08 0 0 1-5.056-2.365 8.17 8.17 0 0 1-2.38-5.777c0-1.216.265-2.37.738-3.407l-7.095-4.103zm15.146 23.826q.305-.087.595-.253l-.001-.001 12.022-6.94q.25-.143.452-.326l-5.226-3.035-.008-.004a.7.7 0 0 1-.315-.423.72.72 0 0 1 .5-.87.7.7 0 0 1 .522.062l.007.005 5.25 3.048q.075-.305.075-.64V12.694q0-.26-.045-.502l-7.095 4.064a8.2 8.2 0 0 1 .724 3.377c0 2.256-.91 4.299-2.38 5.777a8.08 8.08 0 0 1-5.07 2.366zm-6.847-19.027 5.5 3.181-.005 6.276a6.7 6.7 0 0 1-4.08-1.952 6.78 6.78 0 0 1-1.975-4.794c0-.964.2-1.88.56-2.71zm.656-1.176a7 7 0 0 1 .758-.908 6.7 6.7 0 0 1 4.767-1.986 6.7 6.7 0 0 1 4.766 1.986q.428.43.774.93l-5.54 3.173zm11.716 1.201-5.511 3.156-.006 6.277a6.7 6.7 0 0 0 4.092-1.953 6.78 6.78 0 0 0 1.975-4.794c0-.954-.196-1.863-.55-2.686" clip-rule="evenodd"/><path fill="#f5f7f7" d="M56.99 11.537v15.925a1.05 1.05 0 0 1-.693.98 1.02 1.02 0 0 1-1.147-.335L44.513 14.533v12.93c0 .275-.109.54-.302.735a1.03 1.03 0 0 1-1.46 0 1.05 1.05 0 0 1-.302-.736V11.537a1.033 1.033 0 0 1 1.321-1c.206.061.388.185.521.355l10.635 13.574V11.537c0-.276.109-.54.303-.736a1.027 1.027 0 0 1 1.46 0c.193.195.301.46.301.736m21.176 7.962c0 5.155-3.944 9.35-8.79 9.35-4.847 0-8.791-4.195-8.791-9.35s3.944-9.349 8.79-9.349c4.847 0 8.79 4.195 8.79 9.35zm-2.064 0c0-4.007-3.018-7.268-6.727-7.268s-6.727 3.26-6.727 7.268 3.017 7.268 6.727 7.268 6.727-3.26 6.727-7.268m72.696 0c0 5.155-3.945 9.35-8.791 9.35s-8.79-4.195-8.79-9.35 3.943-9.349 8.79-9.349 8.791 4.195 8.791 9.35zm-2.065 0c0-4.007-3.017-7.268-6.727-7.268s-6.727 3.26-6.727 7.268 3.018 7.268 6.727 7.268 6.727-3.26 6.727-7.268m18.961-9.002a1.033 1.033 0 0 0-1.032 1.04v9.729a5.34 5.34 0 0 1-1.472 3.879 5.26 5.26 0 0 1-3.792 1.624 5.23 5.23 0 0 1-3.791-1.624 5.3 5.3 0 0 1-1.128-1.789 5.4 5.4 0 0 1-.345-2.09v-9.729c0-.276-.108-.54-.302-.736a1.027 1.027 0 0 0-1.459 0c-.194.195-.303.46-.303.736v9.729a7.44 7.44 0 0 0 2.082 5.342 7.3 7.3 0 0 0 2.4 1.65 7.28 7.28 0 0 0 5.693 0 7.3 7.3 0 0 0 2.4-1.65 7.4 7.4 0 0 0 1.576-2.459 7.5 7.5 0 0 0 .505-2.883v-9.729c0-.276-.109-.54-.302-.736a1.03 1.03 0 0 0-.73-.305zm-37.248 11.912a4.7 4.7 0 0 0-1.387-2.03 7.6 7.6 0 0 0-1.921-1.19 12.3 12.3 0 0 0-2.039-.692c-.37-.101-.637-.145-1-.228-.306-.064-.61-.128-.905-.207a9.7 9.7 0 0 1-1.663-.574 3.8 3.8 0 0 1-1.226-.855 2 2 0 0 1-.338-.531 2.1 2.1 0 0 1-.163-.57 2.46 2.46 0 0 1 .111-1.275c.149-.408.403-.768.737-1.043a4.46 4.46 0 0 1 2.36-.929 7.1 7.1 0 0 1 2.337.095c.596.13 1.174.33 1.725.593q.544.26 1.053.581c.11.064.218.142.282.184l.1.068.01.006a.924.924 0 0 0 1.296-.223.944.944 0 0 0-.221-1.307l-.39-.296a10 10 0 0 0-1.244-.787 8.63 8.63 0 0 0-5.177-.983 6.47 6.47 0 0 0-3.468 1.412 4.6 4.6 0 0 0-1.301 1.82c-.072.18-.119.372-.176.56a9 9 0 0 0-.099.58l-.018.292-.007.147-.004.073.004.114.012.231q.003.135.023.27a4.2 4.2 0 0 0 1.012 2.294 5.8 5.8 0 0 0 1.898 1.36 11.7 11.7 0 0 0 2.023.705c.339.09.676.162 1.012.232.276.064.658.134.921.21a7.7 7.7 0 0 1 3.087 1.428c.364.28.635.664.779 1.102.143.438.152.909.026 1.352a2.4 2.4 0 0 1-.222.548 1.4 1.4 0 0 1-.172.268q-.092.133-.206.247a3.5 3.5 0 0 1-1.101.765 6.6 6.6 0 0 1-2.676.538 6 6 0 0 1-1.193-.106 7 7 0 0 1-1.079-.3 9.7 9.7 0 0 1-1.708-.792 11 11 0 0 1-1.361-.922.923.923 0 0 0-1.296.079.94.94 0 0 0 .05 1.308l.025.024s.135.128.397.345a11.4 11.4 0 0 0 3.197 1.879q.67.253 1.372.402a7.8 7.8 0 0 0 1.615.168 8.6 8.6 0 0 0 3.517-.726 4.9 4.9 0 0 0 1.822-1.319 4.9 4.9 0 0 0 1.045-2.002l.037-.16.017-.116.033-.231.009-.058.01-.095v-.038l.005-.15.007-.304c0-.204-.034-.413-.055-.62a6 6 0 0 0-.15-.621m-32.016-2.91c0 5.722-3.668 9.004-10.056 9.004h-3.662a1.03 1.03 0 0 1-.73-.305 1.05 1.05 0 0 1-.302-.736V11.537c0-.276.109-.54.302-.736a1.03 1.03 0 0 1 .73-.305h3.662c6.945 0 10.056 4.522 10.056 9.003m-2.065 0c0-4.204-3.137-6.922-7.992-6.922h-2.63v13.845h2.63c6.606 0 7.992-3.765 7.992-6.923m17.182-6.922c.273 0 .536-.11.729-.304a1.044 1.044 0 0 0 0-1.472 1.03 1.03 0 0 0-.729-.305h-10.548a1.03 1.03 0 0 0-.953.643 1 1 0 0 0-.079.398v15.925c0 .276.109.54.303.736.193.195.456.305.729.305h10.55c.274 0 .536-.11.73-.305a1.047 1.047 0 0 0 0-1.472 1.03 1.03 0 0 0-.73-.304h-9.518V20.5h6.684c.273 0 .536-.11.729-.305a1.043 1.043 0 0 0-.729-1.776h-6.686v-5.843zm106.806 0c.274 0 .536-.11.73-.304a1.047 1.047 0 0 0 0-1.472 1.03 1.03 0 0 0-.73-.305h-10.55a1.02 1.02 0 0 0-.73.305 1.04 1.04 0 0 0-.302.736v15.925c0 .276.108.54.302.736.193.195.456.305.73.305h10.55c.274 0 .536-.11.73-.305a1.047 1.047 0 0 0 0-1.472 1.03 1.03 0 0 0-.73-.304h-9.518V20.5h6.687c.274 0 .537-.11.73-.305a1.043 1.043 0 0 0 0-1.471 1.03 1.03 0 0 0-.73-.305h-6.687v-5.843zm-34.066 14.285a1.046 1.046 0 0 1-.248 1.45 1.03 1.03 0 0 1-.771.175 1.03 1.03 0 0 1-.668-.425l-5.299-7.568h-4.581v6.968c0 .276-.109.54-.302.736a1.03 1.03 0 0 1-1.46 0 1.05 1.05 0 0 1-.302-.736V11.537c0-.276.109-.54.302-.736a1.03 1.03 0 0 1 .73-.305h7.326c3.119 0 5.382 2.104 5.382 4.999 0 2.648-1.897 4.627-4.602 4.948l4.493 6.42zm-5.274-8.45c1.954 0 3.318-1.199 3.318-2.917s-1.364-2.918-3.318-2.918h-6.293v5.836h6.293zm10.164.244c.048-.244.063-.478.126-.732.115-.511.284-1.01.506-1.484a7.3 7.3 0 0 1 1.814-2.428 7.1 7.1 0 0 1 2.45-1.408 7.6 7.6 0 0 1 2.513-.368 7.43 7.43 0 0 1 3.62 1.063 8 8 0 0 1 .886.616l.292.25.048.04a.92.92 0 0 0 1.282-.1.94.94 0 0 0-.047-1.296l-.349-.334a9.4 9.4 0 0 0-1.075-.842 8.9 8.9 0 0 0-4.61-1.473 9.5 9.5 0 0 0-3.214.47 9.2 9.2 0 0 0-3.152 1.811 9.43 9.43 0 0 0-2.98 5.033c-.079.332-.117.701-.171 1.054-.02.171-.018.308-.029.463l-.024.506a9.4 9.4 0 0 0 1.761 5.468 9.3 9.3 0 0 0 4.595 3.403c.547.181 1.11.31 1.681.383q.381.06.767.07l.348.017.14.005.096-.003.19-.006a8.86 8.86 0 0 0 4.602-1.474 9.5 9.5 0 0 0 1.088-.854l.316-.307a.94.94 0 0 0 .046-1.301.923.923 0 0 0-1.288-.09l-.009.007-.323.276q-.416.33-.873.604a7.4 7.4 0 0 1-3.628 1.063h-.256l-.347-.018a4 4 0 0 1-.658-.063 7 7 0 0 1-1.245-.292 7.1 7.1 0 0 1-2.449-1.409 7.3 7.3 0 0 1-1.835-2.471 7.3 7.3 0 0 1-.657-3.015l.021-.401c.014-.137.014-.304.032-.433zm37.532-5.95a4.5 4.5 0 0 1-1.668-.311 4.6 4.6 0 0 1-1.379-.912 4.5 4.5 0 0 1-.911-1.4 4.7 4.7 0 0 1-.334-1.802q0-.978.334-1.8a4.08 4.08 0 0 1 2.29-2.312 4.2 4.2 0 0 1 1.668-.335q.889 0 1.667.334.778.31 1.357.911.6.579.933 1.401.334.824.334 1.801 0 .98-.334 1.801a4.28 4.28 0 0 1-2.29 2.313 4.5 4.5 0 0 1-1.667.311m0-.956q.689 0 1.289-.245.6-.266 1.023-.711.445-.467.689-1.09.245-.645.245-1.423 0-.777-.245-1.423-.244-.645-.689-1.111a2.8 2.8 0 0 0-1.023-.712q-.6-.267-1.289-.267-.712 0-1.312.267-.579.244-1.023.712a3.5 3.5 0 0 0-.667 1.111q-.245.646-.245 1.423 0 .78.245 1.423.244.623.667 1.09.444.445 1.023.711.6.245 1.312.245m-1.713-1.312V6.013h1.846q.734 0 1.245.334.534.333.534 1.112 0 .378-.223.711a1.28 1.28 0 0 1-.6.512l.978 1.756h-1.178l-.734-1.445h-.756v1.445zm1.112-2.246h.512q.378 0 .6-.177a.6.6 0 0 0 .222-.49.6.6 0 0 0-.2-.467q-.177-.2-.6-.2h-.534z"/></svg>
