<svg xmlns="http://www.w3.org/2000/svg" height="64" aria-label="Vercel logotype" viewBox="0 0 262 52"><path fill="#fff" d="m59.802 52-29.9-52-29.9 52h59.8Zm30.157-2.367 24.988-47.27h-10.808l-17.237 34.33-17.237-34.33H58.856l24.988 47.27h6.115ZM260.25 2.363v47.27h-8.948V2.363h8.948ZM210.442 31.99c0-3.684.769-6.924 2.307-9.72 1.538-2.796 3.682-4.949 6.432-6.458 2.749-1.51 5.965-2.264 9.647-2.264 3.262 0 6.198.71 8.808 2.13 2.609 1.421 4.683 3.53 6.221 6.326 1.538 2.796 2.33 6.213 2.377 10.252v2.064H219.88c.186 2.93 1.048 5.238 2.586 6.924 1.585 1.642 3.705 2.464 6.362 2.464a8.435 8.435 0 0 0 4.613-1.332 8.31 8.31 0 0 0 3.146-3.595l9.158.666c-1.119 3.328-3.216 5.991-6.292 7.989-3.076 1.997-6.618 2.996-10.625 2.996-3.682 0-6.898-.755-9.647-2.264-2.75-1.509-4.894-3.662-6.432-6.458-1.538-2.796-2.307-6.036-2.307-9.72Zm26.564-3.329c-.326-2.885-1.235-4.993-2.726-6.325-1.491-1.375-3.309-2.063-5.452-2.063-2.47 0-4.474.732-6.012 2.197-1.538 1.464-2.494 3.528-2.866 6.191h17.056Zm-41.659-6.325c1.491 1.199 2.423 2.863 2.796 4.994l9.228-.466c-.327-2.708-1.282-5.06-2.866-7.057-1.585-1.998-3.636-3.529-6.152-4.594-2.47-1.11-5.196-1.665-8.179-1.665-3.682 0-6.897.755-9.647 2.264s-4.893 3.662-6.431 6.458c-1.538 2.796-2.307 6.036-2.307 9.72 0 3.684.769 6.924 2.307 9.72 1.538 2.796 3.681 4.95 6.431 6.458 2.75 1.51 5.965 2.264 9.647 2.264 3.076 0 5.872-.555 8.389-1.665 2.516-1.154 4.567-2.774 6.151-4.86 1.585-2.086 2.54-4.527 2.866-7.323l-9.297-.4c-.326 2.353-1.235 4.172-2.726 5.46-1.492 1.242-3.286 1.864-5.383 1.864-2.889 0-5.126-.999-6.711-2.996-1.584-1.998-2.377-4.838-2.377-8.522s.793-6.524 2.377-8.522c1.585-1.997 3.822-2.996 6.711-2.996 2.004 0 3.728.622 5.173 1.864Zm-45.392-7.99h8.326l.241 6.79c.591-1.921 1.413-3.414 2.466-4.477 1.526-1.542 3.654-2.313 6.383-2.313h3.4v7.269h-3.469c-1.943 0-3.539.264-4.788.793a5.778 5.778 0 0 0-2.775 2.51c-.602 1.146-.902 2.6-.902 4.362v20.353h-8.882V14.346Zm-38.407 7.924c-1.538 2.796-2.307 6.036-2.307 9.72 0 3.684.769 6.924 2.307 9.72 1.538 2.796 3.681 4.95 6.431 6.458 2.75 1.51 5.965 2.264 9.647 2.264 4.008 0 7.55-.999 10.626-2.996 3.075-1.998 5.173-4.66 6.291-7.99l-9.158-.665a8.307 8.307 0 0 1-3.145 3.595 8.436 8.436 0 0 1-4.614 1.332c-2.656 0-4.777-.822-6.361-2.464-1.538-1.686-2.4-3.994-2.587-6.924h26.354v-2.064c-.046-4.039-.838-7.456-2.376-10.252-1.538-2.797-3.612-4.905-6.222-6.325-2.61-1.42-5.546-2.13-8.808-2.13-3.682 0-6.897.754-9.647 2.263s-4.893 3.662-6.431 6.458Zm21.531.067c1.491 1.331 2.4 3.44 2.726 6.324h-17.057c.373-2.663 1.328-4.727 2.866-6.191 1.538-1.465 3.542-2.197 6.012-2.197 2.144 0 3.961.688 5.453 2.064Z"/></svg>