<svg xmlns="http://www.w3.org/2000/svg" width="1024" height="137" fill="none"><path fill="#fff" fill-rule="evenodd" d="M229.812.102h-2.21C215.97.084 206.53 9.506 206.53 21.138v47.046c0 9.394-7.764 17.004-17.005 17.004-5.49 0-10.971-2.763-14.223-7.401L127.25 9.16A21.282 21.282 0 0 0 109.757.066c-10.953 0-20.81 9.313-20.81 20.81v47.317c0 9.394-7.7 17.004-17.005 17.004-5.508 0-10.98-2.763-14.232-7.401L3.942 1.008C2.728-.722.002.129.002 2.248V43.28c0 2.075.633 4.086 1.82 5.79l52.907 75.564c3.126 4.466 7.737 7.782 13.055 8.987 13.308 3.026 25.557-7.22 25.557-20.275v-47.29c0-9.395 7.61-17.005 17.004-17.005h.028a17.374 17.374 0 0 1 14.223 7.402l48.051 68.616c3.995 5.707 10.147 9.096 17.485 9.096 11.198 0 20.791-9.323 20.791-20.81V66.046c0-9.395 7.61-17.005 17.005-17.005h1.875a2.126 2.126 0 0 0 2.129-2.129V2.222a2.126 2.126 0 0 0-2.129-2.13l.009.01Zm275.851 35.404h-11.759c-1.196 0-2.165.97-2.165 2.165v94.309c0 1.196.969 2.166 2.165 2.166h11.759c1.196 0 2.165-.97 2.165-2.166V37.671a2.165 2.165 0 0 0-2.165-2.165ZM493.514.075h12.53c1.195 0 2.165.969 2.165 2.165V17.64c0 1.196-.97 2.165-2.165 2.165h-12.53a2.165 2.165 0 0 1-2.165-2.165V2.24c0-1.196.969-2.165 2.165-2.165Zm82.533 32.75c-13.217 0-22.793 4.593-28.926 11.306-1.966 1.993-5.364.598-5.364-2.202v-4.258a2.165 2.165 0 0 0-2.165-2.165h-11.56c-1.195 0-2.165.97-2.165 2.165v94.309c0 1.196.97 2.166 2.165 2.166h11.569c1.196 0 2.165-.97 2.165-2.166V72.279c0-20.692 4.023-25.285 26.056-25.285 22.032 0 25.665 3.642 25.665 24.324v60.653c0 1.196.969 2.165 2.165 2.165h11.759a2.165 2.165 0 0 0 2.166-2.165V66.906c0-23.563-13.408-34.1-33.52-34.1v.019h-.01Zm120.129 12.647c1.966 1.993 5.363.597 5.363-2.202V2.25c0-1.196.97-2.165 2.165-2.165h11.569c1.196 0 2.166.97 2.166 2.165v129.74c0 1.196-.97 2.166-2.166 2.166h-11.569a2.166 2.166 0 0 1-2.165-2.166v-5.598c.118-2.863-3.352-4.24-5.363-2.202-5.553 6.894-16.28 12.638-30.648 12.638-25.276 0-41.755-18.001-41.755-51.521 0-35.431 18.382-52.481 42.326-52.481 14.368 0 24.714 5.752 30.077 12.647Zm-54.982 39.444c0 32.37 4.023 37.162 30.268 37.162 26.055 0 30.077-4.792 30.077-37.162 0-32.369-3.832-37.352-30.077-37.352s-30.268 4.983-30.268 37.352Zm143.484-6.115-18.952-3.252c-13.988-2.491-16.479-6.704-16.479-13.988.19-9.965 4.022-14.939 22.603-14.939 17.403 0 22.975 5.146 24.171 16.253a2.168 2.168 0 0 0 2.147 1.939h11.496c1.232 0 2.238-1.033 2.165-2.274-1.114-19.07-18.571-29.724-39.399-29.724-23.373 0-38.883 12.447-38.883 30.267 0 16.28 12.647 23.374 27.776 26.245l20.882 3.833c11.497 2.11 15.329 5.943 15.329 13.217 0 11.687-4.023 16.67-23.754 16.67-19.732 0-25.186-5.69-26.454-17.222a2.16 2.16 0 0 0-2.147-1.93H733.61a2.18 2.18 0 0 0-2.174 2.22c.553 20.546 19.179 30.729 41.374 30.729 24.135 0 40.795-12.447 40.795-31.228 0-16.47-12.647-23.944-28.927-26.816Zm83.727 43.866c21.453 0 25.475-4.593 25.475-25.285V37.7c0-1.196.969-2.166 2.165-2.166h11.759c1.196 0 2.166.97 2.166 2.166v94.309c0 1.195-.97 2.165-2.166 2.165h-11.759a2.165 2.165 0 0 1-2.165-2.165v-4.113c-.045-2.927-3.08-4.385-5.173-2.338-6.124 6.704-15.7 11.297-28.537 11.297-19.732 0-33.14-10.536-33.14-34.099V37.69c0-1.196.97-2.166 2.166-2.166h11.759c1.196 0 2.165.97 2.165 2.166v60.653c0 20.682 3.832 24.324 25.285 24.324Zm135.655-87.16V22.858a9.005 9.005 0 0 1 9.01-9.005h8.75c1.19 0 2.16-.97 2.16-2.165V2.23c0-1.196-.97-2.165-2.16-2.165h-6.07c-17.242 0-27.778 9.575-27.778 26.055v9.385h-12.747c-11.297.018-20.166 1.568-26.082 8.625-2.174 2.056-5.173.516-5.173-2.473V37.68a2.165 2.165 0 0 0-2.165-2.166h-11.759c-1.196 0-2.166.97-2.166 2.166v94.308c0 1.196.97 2.166 2.166 2.166h11.759c1.196 0 2.165-.97 2.165-2.166V72.867c0-19.54 4.983-24.134 26.435-24.134h17.567v83.265c0 1.196.969 2.166 2.165 2.166h11.763c1.19 0 2.16-.97 2.16-2.166V48.733h17.78c1.19 0 2.16-.97 2.16-2.165V37.69c0-1.196-.97-2.166-2.16-2.166h-17.78v-.018Zm-577.793 74.042a3.854 3.854 0 0 0 3.741 2.954h.009a3.848 3.848 0 0 0 3.733-2.918l26.97-107.87a2.179 2.179 0 0 1 2.111-1.65h13.462a2.2 2.2 0 0 1 2.129 2.755l-33.928 129.758a2.093 2.093 0 0 1-2.02 1.558h-24.017a2.132 2.132 0 0 1-2.056-1.594L388.217 24.001a3.84 3.84 0 0 0-3.723-2.881h-.245a3.854 3.854 0 0 0-3.723 2.88l-28.175 108.542a2.123 2.123 0 0 1-2.057 1.594h-24.017a2.086 2.086 0 0 1-2.02-1.558L290.33 2.82a2.199 2.199 0 0 1 2.129-2.754h13.462c.996 0 1.866.68 2.111 1.648l26.961 107.871a3.839 3.839 0 0 0 3.732 2.918 3.855 3.855 0 0 0 3.742-2.954L368.386 1.733a2.17 2.17 0 0 1 2.111-1.667h27.749c1.005 0 1.875.688 2.111 1.667l25.91 107.816Z" clip-rule="evenodd"/></svg>
